IKResults
version=1
nRows=8
nColumns=34
inDegrees=yes

Units are S.I. units (second, meters, Newtons, ...)
If the header above contains a line with 'inDegrees', this indicates whether rotational values are in degrees (yes) or radians (no).

endheader
time	pelvis_tilt	pelvis_list	pelvis_rotation	pelvis_tx	pelvis_ty	pelvis_tz	hip_flexion_r	hip_adduction_r	hip_rotation_r	knee_angle_r	ankle_angle_r	subtalar_angle_r	mtp_angle_r	hip_flexion_l	hip_adduction_l	hip_rotation_l	knee_angle_l	socket_flexion	socket_adduction	socket_rotation	socket_tx	socket_ty	socket_tz	pros_ankle_rx	pros_ankle_ry	pros_ankle_rz	pros_ankle_tx	pros_ankle_ty	pros_ankle_tz	foot_flex	lumbar_extension	lumbar_bending	lumbar_rotation
      0.60209000	      1.39687856	     -5.84086092	      5.40963317	      0.00230410	      1.02175889	      0.35267342	     18.59804980	      5.16012052	    -11.18463766	      4.38613386	     13.73883736	     10.18638105	      3.66346944	    -16.58730152	     -7.50913264	    -11.93602886	    -19.27745553	     -2.85324085	     -1.63152394	     16.12050150	      0.00000000	     -0.00663430	      0.00000000	      0.00000000	      0.00000000	      0.00000000	      0.00000000	      0.00000000	      0.00000000	     14.71099053	    -19.99422767	      1.12064753	     -4.16864519
      0.60627000	      1.39810993	     -5.87489778	      5.59310847	      0.00836707	      1.02061988	      0.35265698	     18.71976006	      5.15888018	    -10.99532729	      4.14481986	     13.63079274	     10.22054988	      3.68584585	    -16.80535239	     -7.66306356	    -11.84644530	    -19.43478193	     -2.75012577	     -1.63741470	     16.19898429	      0.00000000	     -0.00653990	      0.00000000	      0.00000000	      0.00000000	      0.00000000	      0.00000000	      0.00000000	      0.00000000	     14.78698805	    -19.93837841	      1.25310202	     -4.20103441
      0.61045000	      1.34705643	     -6.06751079	      5.75151766	      0.01451108	      1.01927564	      0.35260159	     19.03120111	      5.29579067	    -11.00576431	      3.62670681	     13.43229284	     10.19503561	      3.90752587	    -16.92992411	     -7.98615037	    -11.89318652	    -19.74077499	     -2.75866235	     -1.66521744	     16.28193501	      0.00000000	     -0.00667782	      0.00000000	      0.00000000	      0.00000000	      0.00000000	      0.00000000	      0.00000000	      0.00000000	     14.87155572	    -19.90507606	      1.75278463	     -4.39773670
      0.61463000	      1.35047549	     -6.16087398	      5.90244812	      0.02066481	      1.01812631	      0.35262011	     19.23364006	      5.35040915	    -10.87785585	      3.13907096	     13.18909564	     10.21933852	      4.06457304	    -17.11268942	     -8.20187129	    -11.87306414	    -20.01815801	     -2.72130450	     -1.68744890	     16.32158987	      0.00000000	     -0.00662137	      0.00000000	      0.00000000	      0.00000000	      0.00000000	      0.00000000	      0.00000000	      0.00000000	     14.94281824	    -19.86228313	      2.03657993	     -4.46254839
      0.61882000	      1.35834128	     -6.28582161	      6.05545594	      0.02683332	      1.01700549	      0.35263223	     19.45538381	      5.43620289	    -10.76157925	      2.56239407	     12.91728812	     10.20472099	      4.27020530	    -17.28556558	     -8.45443806	    -11.84362109	    -20.31174861	     -2.66619668	     -1.70393567	     16.37913136	      0.00000000	     -0.00659613	      0.00000000	      0.00000000	      0.00000000	      0.00000000	      0.00000000	      0.00000000	      0.00000000	     14.97961424	    -19.84097390	      2.32360609	     -4.50553480
      0.62300000	      1.38412175	     -6.41064924	      6.19513647	      0.03303507	      1.01593500	      0.35262991	     19.66876320	      5.52270093	    -10.61829542	      1.92106651	     12.58546618	     10.16908861	      4.45342780	    -17.48091454	     -8.69434129	    -11.82028950	    -20.58484392	     -2.59132032	     -1.72112823	     16.38876225	      0.00000000	     -0.00657560	      0.00000000	      0.00000000	      0.00000000	      0.00000000	      0.00000000	      0.00000000	      0.00000000	     15.01004243	    -19.81844981	      2.61238138	     -4.53247633
      0.62718000	      1.40889279	     -6.47479229	      6.42799136	      0.03941427	      1.01504830	      0.35256372	     19.71005946	      5.55220368	    -10.37754754	      1.53055641	     12.41211407	     10.19813140	      4.48788759	    -17.66499878	     -8.90226155	    -11.73569329	    -20.77482063	     -2.39326115	     -1.74264334	     16.42536870	      0.00000000	     -0.00642138	      0.00000000	      0.00000000	      0.00000000	      0.00000000	      0.00000000	      0.00000000	      0.00000000	     14.99902124	    -19.74781657	      2.67812591	     -4.53341861
      0.63136000	      1.47807011	     -6.68684625	      6.42444583	      0.04553789	      1.01398346	      0.35274169	     20.09067332	      5.74570981	    -10.28655474	      0.44449388	     11.78022849	     10.01580824	      4.69186157	    -17.93365857	     -9.18260178	    -11.72854785	    -21.06463714	     -2.35304353	     -1.70968508	     16.33613547	      0.00000000	     -0.00659996	      0.00000000	      0.00000000	      0.00000000	      0.00000000	      0.00000000	      0.00000000	      0.00000000	     15.01069259	    -19.83618091	      3.20021510	     -4.54161402
